<mxfile host="app.diagrams.net" agent="Mozilla/5.0 (Windows NT 10.0; Win64; x64) AppleWebKit/537.36 (KHTML, like Gecko) Chrome/135.0.0.0 Safari/537.36" version="26.2.14">
  <diagram name="第 1 页" id="8JYiRfVChP1ZXNUJzpnb">
    <mxGraphModel dx="1869" dy="535" grid="1" gridSize="10" guides="1" tooltips="1" connect="1" arrows="1" fold="1" page="1" pageScale="1" pageWidth="827" pageHeight="1169" math="0" shadow="0">
      <root>
        <mxCell id="0" />
        <mxCell id="1" parent="0" />
        <mxCell id="90SKvVA2a7kRM0y8JjaH-15" style="edgeStyle=orthogonalEdgeStyle;rounded=0;orthogonalLoop=1;jettySize=auto;html=1;fontSize=16;" edge="1" parent="1" source="90SKvVA2a7kRM0y8JjaH-2" target="90SKvVA2a7kRM0y8JjaH-11">
          <mxGeometry relative="1" as="geometry" />
        </mxCell>
        <mxCell id="90SKvVA2a7kRM0y8JjaH-2" value="&lt;font style=&quot;vertical-align: inherit;&quot; class=&quot;notranslate fyzs-translate-target fyzs-translate-target-wrapper&quot;&gt;&lt;font style=&quot;vertical-align: inherit;&quot; class=&quot;notranslate fyzs-translate-target fyzs-translate-target-box&quot;&gt;&lt;font style=&quot;vertical-align: inherit;&quot; title=&quot;O&quot; class=&quot;notranslate fyzs-translate-target fyzs-translate-target-text&quot;&gt;ODS&lt;/font&gt;&lt;/font&gt;&lt;/font&gt;&lt;div&gt;&lt;font style=&quot;vertical-align: inherit;&quot; class=&quot;notranslate fyzs-translate-target fyzs-translate-target-wrapper&quot;&gt;&lt;font style=&quot;vertical-align: inherit;&quot; class=&quot;notranslate fyzs-translate-target fyzs-translate-target-box&quot;&gt;&lt;font style=&quot;vertical-align: inherit;&quot; title=&quot;O&quot; class=&quot;notranslate fyzs-translate-target fyzs-translate-target-text&quot;&gt;（Operation Data Store）&lt;/font&gt;&lt;/font&gt;&lt;/font&gt;&lt;/div&gt;" style="rounded=1;whiteSpace=wrap;html=1;fillColor=#dae8fc;strokeColor=#6c8ebf;fontSize=16;" vertex="1" parent="1">
          <mxGeometry x="370" y="130" width="190" height="80" as="geometry" />
        </mxCell>
        <mxCell id="90SKvVA2a7kRM0y8JjaH-16" style="edgeStyle=orthogonalEdgeStyle;rounded=0;orthogonalLoop=1;jettySize=auto;html=1;entryX=0.5;entryY=0;entryDx=0;entryDy=0;fontSize=16;" edge="1" parent="1" source="90SKvVA2a7kRM0y8JjaH-11" target="90SKvVA2a7kRM0y8JjaH-12">
          <mxGeometry relative="1" as="geometry" />
        </mxCell>
        <mxCell id="90SKvVA2a7kRM0y8JjaH-11" value="&lt;font style=&quot;vertical-align: inherit;&quot; class=&quot;notranslate fyzs-translate-target fyzs-translate-target-wrapper&quot;&gt;&lt;font style=&quot;vertical-align: inherit;&quot; class=&quot;notranslate fyzs-translate-target fyzs-translate-target-box&quot;&gt;&lt;font style=&quot;vertical-align: inherit;&quot; title=&quot;D&quot; class=&quot;notranslate fyzs-translate-target fyzs-translate-target-text&quot;&gt;DWD&lt;/font&gt;&lt;/font&gt;&lt;/font&gt;&lt;div&gt;&lt;font style=&quot;vertical-align: inherit;&quot; class=&quot;notranslate fyzs-translate-target fyzs-translate-target-wrapper&quot;&gt;&lt;font style=&quot;vertical-align: inherit;&quot; class=&quot;notranslate fyzs-translate-target fyzs-translate-target-box&quot;&gt;&lt;font style=&quot;vertical-align: inherit;&quot; title=&quot;D&quot; class=&quot;notranslate fyzs-translate-target fyzs-translate-target-text&quot;&gt;（Data Warehouse detail）&lt;/font&gt;&lt;/font&gt;&lt;/font&gt;&lt;/div&gt;" style="rounded=1;whiteSpace=wrap;html=1;fillColor=#dae8fc;strokeColor=#6c8ebf;fontSize=16;" vertex="1" parent="1">
          <mxGeometry x="370" y="280" width="190" height="80" as="geometry" />
        </mxCell>
        <mxCell id="90SKvVA2a7kRM0y8JjaH-17" style="edgeStyle=orthogonalEdgeStyle;rounded=0;orthogonalLoop=1;jettySize=auto;html=1;fontSize=16;" edge="1" parent="1" source="90SKvVA2a7kRM0y8JjaH-12" target="90SKvVA2a7kRM0y8JjaH-13">
          <mxGeometry relative="1" as="geometry" />
        </mxCell>
        <mxCell id="90SKvVA2a7kRM0y8JjaH-12" value="&lt;font style=&quot;vertical-align: inherit;&quot; class=&quot;notranslate fyzs-translate-target fyzs-translate-target-wrapper&quot;&gt;&lt;font style=&quot;vertical-align: inherit;&quot; class=&quot;notranslate fyzs-translate-target fyzs-translate-target-box&quot;&gt;&lt;font style=&quot;vertical-align: inherit;&quot; title=&quot;D&quot; class=&quot;notranslate fyzs-translate-target fyzs-translate-target-text&quot;&gt;DWM&lt;/font&gt;&lt;/font&gt;&lt;/font&gt;&lt;div&gt;&lt;font style=&quot;vertical-align: inherit;&quot; class=&quot;notranslate fyzs-translate-target fyzs-translate-target-wrapper&quot;&gt;&lt;font style=&quot;vertical-align: inherit;&quot; class=&quot;notranslate fyzs-translate-target fyzs-translate-target-box&quot;&gt;&lt;font style=&quot;vertical-align: inherit;&quot; title=&quot;D&quot; class=&quot;notranslate fyzs-translate-target fyzs-translate-target-text&quot;&gt;（Data Warehouse Middle）&lt;/font&gt;&lt;/font&gt;&lt;/font&gt;&lt;/div&gt;" style="rounded=1;whiteSpace=wrap;html=1;fillColor=#dae8fc;strokeColor=#6c8ebf;fontSize=16;" vertex="1" parent="1">
          <mxGeometry x="370" y="430" width="190" height="80" as="geometry" />
        </mxCell>
        <mxCell id="90SKvVA2a7kRM0y8JjaH-18" style="edgeStyle=orthogonalEdgeStyle;rounded=0;orthogonalLoop=1;jettySize=auto;html=1;entryX=0.5;entryY=0;entryDx=0;entryDy=0;fontSize=16;" edge="1" parent="1" source="90SKvVA2a7kRM0y8JjaH-13" target="90SKvVA2a7kRM0y8JjaH-14">
          <mxGeometry relative="1" as="geometry" />
        </mxCell>
        <mxCell id="90SKvVA2a7kRM0y8JjaH-13" value="&lt;font style=&quot;vertical-align: inherit;&quot; class=&quot;notranslate fyzs-translate-target fyzs-translate-target-wrapper&quot;&gt;&lt;font style=&quot;vertical-align: inherit;&quot; class=&quot;notranslate fyzs-translate-target fyzs-translate-target-box&quot;&gt;&lt;font style=&quot;vertical-align: inherit;&quot; title=&quot;D&quot; class=&quot;notranslate fyzs-translate-target fyzs-translate-target-text&quot;&gt;DWS&lt;/font&gt;&lt;/font&gt;&lt;/font&gt;&lt;div&gt;&lt;font style=&quot;vertical-align: inherit;&quot; class=&quot;notranslate fyzs-translate-target fyzs-translate-target-wrapper&quot;&gt;&lt;font style=&quot;vertical-align: inherit;&quot; class=&quot;notranslate fyzs-translate-target fyzs-translate-target-box&quot;&gt;&lt;font style=&quot;vertical-align: inherit;&quot; title=&quot;D&quot; class=&quot;notranslate fyzs-translate-target fyzs-translate-target-text&quot;&gt;（Data Warehouse Service）&lt;/font&gt;&lt;/font&gt;&lt;/font&gt;&lt;/div&gt;" style="rounded=1;whiteSpace=wrap;html=1;fillColor=#dae8fc;strokeColor=#6c8ebf;fontSize=16;" vertex="1" parent="1">
          <mxGeometry x="370" y="570" width="190" height="80" as="geometry" />
        </mxCell>
        <mxCell id="90SKvVA2a7kRM0y8JjaH-14" value="&lt;font style=&quot;vertical-align: inherit;&quot; class=&quot;notranslate fyzs-translate-target fyzs-translate-target-wrapper&quot;&gt;&lt;font style=&quot;vertical-align: inherit;&quot; class=&quot;notranslate fyzs-translate-target fyzs-translate-target-box&quot;&gt;&lt;font style=&quot;vertical-align: inherit;&quot; title=&quot;A&quot; class=&quot;notranslate fyzs-translate-target fyzs-translate-target-text&quot;&gt;ADS&lt;/font&gt;&lt;/font&gt;&lt;/font&gt;&lt;div&gt;&lt;font style=&quot;vertical-align: inherit;&quot; class=&quot;notranslate fyzs-translate-target fyzs-translate-target-wrapper&quot;&gt;&lt;font style=&quot;vertical-align: inherit;&quot; class=&quot;notranslate fyzs-translate-target fyzs-translate-target-box&quot;&gt;&lt;font style=&quot;vertical-align: inherit;&quot; title=&quot;A&quot; class=&quot;notranslate fyzs-translate-target fyzs-translate-target-text&quot;&gt;（Application Data Service）&lt;/font&gt;&lt;/font&gt;&lt;/font&gt;&lt;/div&gt;" style="rounded=1;whiteSpace=wrap;html=1;fillColor=#dae8fc;strokeColor=#6c8ebf;fontSize=16;" vertex="1" parent="1">
          <mxGeometry x="370" y="710" width="190" height="80" as="geometry" />
        </mxCell>
        <mxCell id="90SKvVA2a7kRM0y8JjaH-19" value="&lt;font style=&quot;vertical-align: inherit;&quot; class=&quot;notranslate fyzs-translate-target fyzs-translate-target-wrapper&quot;&gt;&lt;font style=&quot;vertical-align: inherit;&quot; class=&quot;notranslate fyzs-translate-target fyzs-translate-target-box&quot;&gt;&lt;font style=&quot;vertical-align: inherit;&quot; title=&quot;y&quot; class=&quot;notranslate fyzs-translate-target fyzs-translate-target-text&quot;&gt;原始数据层，汇集多个原始未处理的数据，比如埋点日志，业务数据库，队列等，是后续数据仓库加工数据的来源&lt;/font&gt;&lt;/font&gt;&lt;/font&gt;" style="shape=callout;whiteSpace=wrap;html=1;perimeter=calloutPerimeter;position2=0;fontSize=16;" vertex="1" parent="1">
          <mxGeometry x="590" y="40" width="420" height="90" as="geometry" />
        </mxCell>
        <mxCell id="90SKvVA2a7kRM0y8JjaH-20" value="&lt;font style=&quot;vertical-align: inherit;&quot; class=&quot;notranslate fyzs-translate-target fyzs-translate-target-wrapper&quot;&gt;&lt;font style=&quot;vertical-align: inherit;&quot; class=&quot;notranslate fyzs-translate-target fyzs-translate-target-box&quot;&gt;&lt;font style=&quot;vertical-align: inherit;&quot; title=&quot;m&quot; class=&quot;notranslate fyzs-translate-target fyzs-translate-target-text&quot;&gt;明细数据层，保持和ODS层一样的数据颗粒度，对ODS数据层做一些数据的清洗和规范化的操作，比如去除空数据，脏数据，脱敏，分流等操作&lt;/font&gt;&lt;/font&gt;&lt;/font&gt;" style="shape=callout;whiteSpace=wrap;html=1;perimeter=calloutPerimeter;position2=1;fontSize=16;" vertex="1" parent="1">
          <mxGeometry x="-105" y="220" width="440" height="100" as="geometry" />
        </mxCell>
        <mxCell id="90SKvVA2a7kRM0y8JjaH-21" value="&lt;font style=&quot;vertical-align: inherit;&quot; class=&quot;notranslate fyzs-translate-target fyzs-translate-target-wrapper&quot;&gt;&lt;font style=&quot;vertical-align: inherit;&quot; class=&quot;notranslate fyzs-translate-target fyzs-translate-target-box&quot;&gt;&lt;font style=&quot;vertical-align: inherit;&quot; title=&quot;s&quot; class=&quot;notranslate fyzs-translate-target fyzs-translate-target-text&quot;&gt;数据中间层，DWD层的数据基础上对数据做一些轻微的聚合操作，通用的维度进行聚合，减少重复工作（地址位置，设备等轻度关联）&lt;/font&gt;&lt;/font&gt;&lt;/font&gt;" style="shape=callout;whiteSpace=wrap;html=1;perimeter=calloutPerimeter;position2=0;fontSize=16;" vertex="1" parent="1">
          <mxGeometry x="600" y="380" width="420" height="90" as="geometry" />
        </mxCell>
        <mxCell id="90SKvVA2a7kRM0y8JjaH-22" value="&lt;font style=&quot;vertical-align: inherit;&quot; class=&quot;notranslate fyzs-translate-target fyzs-translate-target-wrapper&quot;&gt;&lt;font style=&quot;vertical-align: inherit;&quot; class=&quot;notranslate fyzs-translate-target fyzs-translate-target-box&quot;&gt;&lt;font style=&quot;vertical-align: inherit;&quot; title=&quot;s&quot; class=&quot;notranslate fyzs-translate-target fyzs-translate-target-text&quot;&gt;数据服务层，基于DWM上的基础数据，汇总成分析某一个主题域的数据层，该层的数据表会相对较少，一张表会涵盖比较多的业务内容，多数是宽表，用于提供后续的业务实时查询，如果是完全的明细那么查询&lt;/font&gt;&lt;/font&gt;&lt;/font&gt;" style="shape=callout;whiteSpace=wrap;html=1;perimeter=calloutPerimeter;position2=1;fontSize=16;" vertex="1" parent="1">
          <mxGeometry x="-105" y="490" width="450" height="120" as="geometry" />
        </mxCell>
        <mxCell id="90SKvVA2a7kRM0y8JjaH-23" value="&lt;font style=&quot;vertical-align: inherit;&quot; class=&quot;notranslate fyzs-translate-target fyzs-translate-target-wrapper&quot;&gt;&lt;font style=&quot;vertical-align: inherit;&quot; class=&quot;notranslate fyzs-translate-target fyzs-translate-target-box&quot;&gt;&lt;font style=&quot;vertical-align: inherit;&quot; title=&quot;s&quot; class=&quot;notranslate fyzs-translate-target fyzs-translate-target-text&quot;&gt;数据应用层，提供给数据产品和数据分析使用的数据，一般会存放在ES，Redis，ClickHouse，常用的数据报表就是存在这里&lt;/font&gt;&lt;/font&gt;&lt;/font&gt;" style="shape=callout;whiteSpace=wrap;html=1;perimeter=calloutPerimeter;position2=0;fontSize=16;" vertex="1" parent="1">
          <mxGeometry x="610" y="650" width="420" height="100" as="geometry" />
        </mxCell>
      </root>
    </mxGraphModel>
  </diagram>
</mxfile>
